<?xml version="1.0" encoding="UTF-8" standalone="no"?>
<!DOCTYPE svg PUBLIC "-//W3C//DTD SVG 1.1//EN"
 "http://www.w3.org/Graphics/SVG/1.1/DTD/svg11.dtd">
<!-- Generated by graphviz version 2.47.0 (20210316.0004)
 -->
<!-- Title: dependencies Pages: 1 -->
<svg width="504pt" height="284pt"
 viewBox="0.00 0.00 504.00 284.00" xmlns="http://www.w3.org/2000/svg" xmlns:xlink="http://www.w3.org/1999/xlink">
<g id="graph0" class="graph" transform="scale(1 1) rotate(0) translate(4 280)">
<title>dependencies</title>
<polygon fill="white" stroke="transparent" points="-4,4 -4,-280 500,-280 500,4 -4,4"/>
<text text-anchor="start" x="227.01" y="-42.4" font-family="Times-12" font-weight="bold" font-size="14.00">Legend</text>
<polygon fill="#ffffb3" stroke="transparent" points="14,-10 14,-30 34,-30 34,-10 14,-10"/>
<text text-anchor="start" x="37.63" y="-15.4" font-family="Times-12" font-size="14.00"> &#160;Declarations</text>
<polygon fill="#8dd3c7" stroke="transparent" points="127,-10 127,-30 147,-30 147,-10 127,-10"/>
<text text-anchor="start" x="150.73" y="-15.4" font-family="Times-12" font-size="14.00"> &#160;Module</text>
<polygon fill="#80b1d3" stroke="transparent" points="213,-10 213,-30 233,-30 233,-10 213,-10"/>
<text text-anchor="start" x="236.78" y="-15.4" font-family="Times-12" font-size="14.00"> &#160;Bootstrap</text>
<polygon fill="#fdb462" stroke="transparent" points="310,-10 310,-30 330,-30 330,-10 310,-10"/>
<text text-anchor="start" x="333.67" y="-15.4" font-family="Times-12" font-size="14.00"> &#160;Providers</text>
<polygon fill="#fb8072" stroke="transparent" points="406,-10 406,-30 426,-30 426,-10 406,-10"/>
<text text-anchor="start" x="429.73" y="-15.4" font-family="Times-12" font-size="14.00"> &#160;Exports</text>
<g id="clust1" class="cluster">
<title>cluster_PostModule</title>
<polygon fill="none" stroke="black" stroke-dasharray="1,5" points="114,-70 114,-268 382,-268 382,-70 114,-70"/>
</g>
<g id="clust3" class="cluster">
<title>cluster_PostModule_imports</title>
<polygon fill="none" stroke="black" points="260,-78 260,-130 374,-130 374,-78 260,-78"/>
</g>
<g id="clust4" class="cluster">
<title>cluster_PostModule_exports</title>
<polygon fill="none" stroke="black" points="201,-208 201,-260 303,-260 303,-208 201,-208"/>
</g>
<g id="clust6" class="cluster">
<title>cluster_PostModule_providers</title>
<polygon fill="none" stroke="black" points="122,-78 122,-130 252,-130 252,-78 122,-78"/>
</g>
<!-- PrismaModule -->
<g id="node1" class="node">
<title>PrismaModule</title>
<polygon fill="#8dd3c7" stroke="black" points="366.43,-122 363.43,-126 342.43,-126 339.43,-122 267.57,-122 267.57,-86 366.43,-86 366.43,-122"/>
<text text-anchor="middle" x="317" y="-99.8" font-family="Times,serif" font-size="14.00">PrismaModule</text>
</g>
<!-- PostModule -->
<g id="node2" class="node">
<title>PostModule</title>
<polygon fill="#8dd3c7" stroke="black" points="293.67,-187 290.67,-191 269.67,-191 266.67,-187 210.33,-187 210.33,-151 293.67,-151 293.67,-187"/>
<text text-anchor="middle" x="252" y="-164.8" font-family="Times,serif" font-size="14.00">PostModule</text>
</g>
<!-- PrismaModule&#45;&gt;PostModule -->
<g id="edge1" class="edge">
<title>PrismaModule&#45;&gt;PostModule</title>
<path fill="none" stroke="black" d="M280.81,-122.11C280.81,-122.11 280.81,-140.99 280.81,-140.99"/>
<polygon fill="black" stroke="black" points="277.31,-140.99 280.81,-150.99 284.31,-140.99 277.31,-140.99"/>
</g>
<!-- PostService  -->
<g id="node3" class="node">
<title>PostService </title>
<polygon fill="#fb8072" stroke="black" points="294.6,-252 209.4,-252 209.4,-216 294.6,-216 294.6,-252"/>
<text text-anchor="middle" x="252" y="-229.8" font-family="Times,serif" font-size="14.00">PostService </text>
</g>
<!-- PostModule&#45;&gt;PostService  -->
<g id="edge2" class="edge">
<title>PostModule&#45;&gt;PostService </title>
<path fill="none" stroke="black" stroke-dasharray="5,2" d="M252,-187.11C252,-187.11 252,-205.99 252,-205.99"/>
<polygon fill="black" stroke="black" points="248.5,-205.99 252,-215.99 255.5,-205.99 248.5,-205.99"/>
</g>
<!-- PostService -->
<g id="node4" class="node">
<title>PostService</title>
<ellipse fill="#fdb462" stroke="black" cx="187" cy="-104" rx="56.76" ry="18"/>
<text text-anchor="middle" x="187" y="-99.8" font-family="Times,serif" font-size="14.00">PostService</text>
</g>
<!-- PostService&#45;&gt;PostModule -->
<g id="edge3" class="edge">
<title>PostService&#45;&gt;PostModule</title>
<path fill="none" stroke="black" d="M226.9,-116.84C226.9,-116.84 226.9,-140.52 226.9,-140.52"/>
<polygon fill="black" stroke="black" points="223.4,-140.52 226.9,-150.52 230.4,-140.52 223.4,-140.52"/>
</g>
</g>
</svg>
