<?xml version="1.0" encoding="UTF-8" standalone="no"?>
<!DOCTYPE svg PUBLIC "-//W3C//DTD SVG 1.1//EN"
 "http://www.w3.org/Graphics/SVG/1.1/DTD/svg11.dtd">
<!-- Generated by graphviz version 2.47.0 (20210316.0004)
 -->
<!-- Title: dependencies Pages: 1 -->
<svg width="1096pt" height="211pt"
 viewBox="0.00 0.00 1096.00 211.00" xmlns="http://www.w3.org/2000/svg" xmlns:xlink="http://www.w3.org/1999/xlink">
<g id="graph0" class="graph" transform="scale(1 1) rotate(0) translate(4 207)">
<title>dependencies</title>
<polygon fill="white" stroke="transparent" points="-4,4 -4,-207 1092,-207 1092,4 -4,4"/>
<text text-anchor="start" x="523.01" y="-42.4" font-family="Times-12" font-weight="bold" font-size="14.00">Legend</text>
<polygon fill="#ffffb3" stroke="transparent" points="310,-10 310,-30 330,-30 330,-10 310,-10"/>
<text text-anchor="start" x="333.63" y="-15.4" font-family="Times-12" font-size="14.00"> &#160;Declarations</text>
<polygon fill="#8dd3c7" stroke="transparent" points="423,-10 423,-30 443,-30 443,-10 423,-10"/>
<text text-anchor="start" x="446.73" y="-15.4" font-family="Times-12" font-size="14.00"> &#160;Module</text>
<polygon fill="#80b1d3" stroke="transparent" points="509,-10 509,-30 529,-30 529,-10 509,-10"/>
<text text-anchor="start" x="532.78" y="-15.4" font-family="Times-12" font-size="14.00"> &#160;Bootstrap</text>
<polygon fill="#fdb462" stroke="transparent" points="606,-10 606,-30 626,-30 626,-10 606,-10"/>
<text text-anchor="start" x="629.67" y="-15.4" font-family="Times-12" font-size="14.00"> &#160;Providers</text>
<polygon fill="#fb8072" stroke="transparent" points="702,-10 702,-30 722,-30 722,-10 702,-10"/>
<text text-anchor="start" x="725.73" y="-15.4" font-family="Times-12" font-size="14.00"> &#160;Exports</text>
<g id="clust1" class="cluster">
<title>cluster_AppModule</title>
<polygon fill="none" stroke="black" stroke-dasharray="1,5" points="8,-70 8,-195 1080,-195 1080,-70 8,-70"/>
</g>
<g id="clust6" class="cluster">
<title>cluster_AppModule_providers</title>
<polygon fill="none" stroke="black" points="942,-78 942,-130 1072,-130 1072,-78 942,-78"/>
</g>
<g id="clust3" class="cluster">
<title>cluster_AppModule_imports</title>
<polygon fill="none" stroke="black" points="16,-78 16,-130 934,-130 934,-78 16,-78"/>
</g>
<!-- CatsModule -->
<g id="node1" class="node">
<title>CatsModule</title>
<polygon fill="#8dd3c7" stroke="black" points="926.44,-122 923.44,-126 902.44,-126 899.44,-122 841.56,-122 841.56,-86 926.44,-86 926.44,-122"/>
<text text-anchor="middle" x="884" y="-99.8" font-family="Times,serif" font-size="14.00">CatsModule</text>
</g>
<!-- AppModule -->
<g id="node9" class="node">
<title>AppModule</title>
<polygon fill="#8dd3c7" stroke="black" points="583.66,-187 580.66,-191 559.66,-191 556.66,-187 500.34,-187 500.34,-151 583.66,-151 583.66,-187"/>
<text text-anchor="middle" x="542" y="-164.8" font-family="Times,serif" font-size="14.00">AppModule</text>
</g>
<!-- CatsModule&#45;&gt;AppModule -->
<g id="edge1" class="edge">
<title>CatsModule&#45;&gt;AppModule</title>
<path fill="none" stroke="black" d="M884,-122.13C884,-142.57 884,-173 884,-173 884,-173 593.94,-173 593.94,-173"/>
<polygon fill="black" stroke="black" points="593.94,-169.5 583.94,-173 593.94,-176.5 593.94,-169.5"/>
</g>
<!-- CoreModule -->
<g id="node2" class="node">
<title>CoreModule</title>
<polygon fill="#8dd3c7" stroke="black" points="823.26,-122 820.26,-126 799.26,-126 796.26,-122 736.74,-122 736.74,-86 823.26,-86 823.26,-122"/>
<text text-anchor="middle" x="780" y="-99.8" font-family="Times,serif" font-size="14.00">CoreModule</text>
</g>
<!-- CoreModule&#45;&gt;AppModule -->
<g id="edge2" class="edge">
<title>CoreModule&#45;&gt;AppModule</title>
<path fill="none" stroke="black" d="M780,-122.27C780,-140.56 780,-166 780,-166 780,-166 593.73,-166 593.73,-166"/>
<polygon fill="black" stroke="black" points="593.73,-162.5 583.73,-166 593.73,-169.5 593.73,-162.5"/>
</g>
<!-- HealthModule -->
<g id="node3" class="node">
<title>HealthModule</title>
<polygon fill="#8dd3c7" stroke="black" points="718.37,-122 715.37,-126 694.37,-126 691.37,-122 621.63,-122 621.63,-86 718.37,-86 718.37,-122"/>
<text text-anchor="middle" x="670" y="-99.8" font-family="Times,serif" font-size="14.00">HealthModule</text>
</g>
<!-- HealthModule&#45;&gt;AppModule -->
<g id="edge3" class="edge">
<title>HealthModule&#45;&gt;AppModule</title>
<path fill="none" stroke="black" d="M670,-122.01C670,-138.05 670,-159 670,-159 670,-159 593.91,-159 593.91,-159"/>
<polygon fill="black" stroke="black" points="593.91,-155.5 583.91,-159 593.91,-162.5 593.91,-155.5"/>
</g>
<!-- NestConfigModule -->
<g id="node4" class="node">
<title>NestConfigModule</title>
<polygon fill="#8dd3c7" stroke="black" points="604.09,-122 601.09,-126 580.09,-126 577.09,-122 479.91,-122 479.91,-86 604.09,-86 604.09,-122"/>
<text text-anchor="middle" x="542" y="-99.8" font-family="Times,serif" font-size="14.00">NestConfigModule</text>
</g>
<!-- NestConfigModule&#45;&gt;AppModule -->
<g id="edge4" class="edge">
<title>NestConfigModule&#45;&gt;AppModule</title>
<path fill="none" stroke="black" d="M542,-122.11C542,-122.11 542,-140.99 542,-140.99"/>
<polygon fill="black" stroke="black" points="538.5,-140.99 542,-150.99 545.5,-140.99 538.5,-140.99"/>
</g>
<!-- NestPinoModule -->
<g id="node5" class="node">
<title>NestPinoModule</title>
<polygon fill="#8dd3c7" stroke="black" points="462.38,-122 459.38,-126 438.38,-126 435.38,-122 351.62,-122 351.62,-86 462.38,-86 462.38,-122"/>
<text text-anchor="middle" x="407" y="-99.8" font-family="Times,serif" font-size="14.00">NestPinoModule</text>
</g>
<!-- NestPinoModule&#45;&gt;AppModule -->
<g id="edge5" class="edge">
<title>NestPinoModule&#45;&gt;AppModule</title>
<path fill="none" stroke="black" d="M407,-122.01C407,-138.05 407,-159 407,-159 407,-159 490.03,-159 490.03,-159"/>
<polygon fill="black" stroke="black" points="490.03,-162.5 500.03,-159 490.03,-155.5 490.03,-162.5"/>
</g>
<!-- PostModule -->
<g id="node6" class="node">
<title>PostModule</title>
<polygon fill="#8dd3c7" stroke="black" points="333.67,-122 330.67,-126 309.67,-126 306.67,-122 250.33,-122 250.33,-86 333.67,-86 333.67,-122"/>
<text text-anchor="middle" x="292" y="-99.8" font-family="Times,serif" font-size="14.00">PostModule</text>
</g>
<!-- PostModule&#45;&gt;AppModule -->
<g id="edge6" class="edge">
<title>PostModule&#45;&gt;AppModule</title>
<path fill="none" stroke="black" d="M292,-122.27C292,-140.56 292,-166 292,-166 292,-166 490.16,-166 490.16,-166"/>
<polygon fill="black" stroke="black" points="490.16,-169.5 500.16,-166 490.16,-162.5 490.16,-169.5"/>
</g>
<!-- RecipesModule -->
<g id="node7" class="node">
<title>RecipesModule</title>
<polygon fill="#8dd3c7" stroke="black" points="231.87,-122 228.87,-126 207.87,-126 204.87,-122 128.13,-122 128.13,-86 231.87,-86 231.87,-122"/>
<text text-anchor="middle" x="180" y="-99.8" font-family="Times,serif" font-size="14.00">RecipesModule</text>
</g>
<!-- RecipesModule&#45;&gt;AppModule -->
<g id="edge7" class="edge">
<title>RecipesModule&#45;&gt;AppModule</title>
<path fill="none" stroke="black" d="M180,-122.13C180,-142.57 180,-173 180,-173 180,-173 490.12,-173 490.12,-173"/>
<polygon fill="black" stroke="black" points="490.12,-176.5 500.12,-173 490.12,-169.5 490.12,-176.5"/>
</g>
<!-- UserModule -->
<g id="node8" class="node">
<title>UserModule</title>
<polygon fill="#8dd3c7" stroke="black" points="109.98,-122 106.98,-126 85.98,-126 82.98,-122 24.02,-122 24.02,-86 109.98,-86 109.98,-122"/>
<text text-anchor="middle" x="67" y="-99.8" font-family="Times,serif" font-size="14.00">UserModule</text>
</g>
<!-- UserModule&#45;&gt;AppModule -->
<g id="edge8" class="edge">
<title>UserModule&#45;&gt;AppModule</title>
<path fill="none" stroke="black" d="M67,-122.01C67,-144.49 67,-180 67,-180 67,-180 490.26,-180 490.26,-180"/>
<polygon fill="black" stroke="black" points="490.26,-183.5 500.26,-180 490.26,-176.5 490.26,-183.5"/>
</g>
<!-- AppService -->
<g id="node10" class="node">
<title>AppService</title>
<ellipse fill="#fdb462" stroke="black" cx="1007" cy="-104" rx="56.74" ry="18"/>
<text text-anchor="middle" x="1007" y="-99.8" font-family="Times,serif" font-size="14.00">AppService</text>
</g>
<!-- AppService&#45;&gt;AppModule -->
<g id="edge9" class="edge">
<title>AppService&#45;&gt;AppModule</title>
<path fill="none" stroke="black" d="M1007,-122.01C1007,-144.49 1007,-180 1007,-180 1007,-180 593.67,-180 593.67,-180"/>
<polygon fill="black" stroke="black" points="593.67,-176.5 583.67,-180 593.67,-183.5 593.67,-176.5"/>
</g>
</g>
</svg>
