<?xml version="1.0" encoding="UTF-8" standalone="no"?>
<!DOCTYPE svg PUBLIC "-//W3C//DTD SVG 1.1//EN"
 "http://www.w3.org/Graphics/SVG/1.1/DTD/svg11.dtd">
<!-- Generated by graphviz version 2.47.0 (20210316.0004)
 -->
<!-- Title: dependencies Pages: 1 -->
<svg width="1235pt" height="211pt"
 viewBox="0.00 0.00 1235.00 211.00" xmlns="http://www.w3.org/2000/svg" xmlns:xlink="http://www.w3.org/1999/xlink">
<g id="graph0" class="graph" transform="scale(1 1) rotate(0) translate(4 207)">
<title>dependencies</title>
<polygon fill="white" stroke="transparent" points="-4,4 -4,-207 1231,-207 1231,4 -4,4"/>
<text text-anchor="start" x="592.51" y="-42.4" font-family="Times-12" font-weight="bold" font-size="14.00">Legend</text>
<polygon fill="#ffffb3" stroke="transparent" points="379.5,-10 379.5,-30 399.5,-30 399.5,-10 379.5,-10"/>
<text text-anchor="start" x="403.13" y="-15.4" font-family="Times-12" font-size="14.00"> &#160;Declarations</text>
<polygon fill="#8dd3c7" stroke="transparent" points="492.5,-10 492.5,-30 512.5,-30 512.5,-10 492.5,-10"/>
<text text-anchor="start" x="516.23" y="-15.4" font-family="Times-12" font-size="14.00"> &#160;Module</text>
<polygon fill="#80b1d3" stroke="transparent" points="578.5,-10 578.5,-30 598.5,-30 598.5,-10 578.5,-10"/>
<text text-anchor="start" x="602.28" y="-15.4" font-family="Times-12" font-size="14.00"> &#160;Bootstrap</text>
<polygon fill="#fdb462" stroke="transparent" points="675.5,-10 675.5,-30 695.5,-30 695.5,-10 675.5,-10"/>
<text text-anchor="start" x="699.17" y="-15.4" font-family="Times-12" font-size="14.00"> &#160;Providers</text>
<polygon fill="#fb8072" stroke="transparent" points="771.5,-10 771.5,-30 791.5,-30 791.5,-10 771.5,-10"/>
<text text-anchor="start" x="795.23" y="-15.4" font-family="Times-12" font-size="14.00"> &#160;Exports</text>
<g id="clust1" class="cluster">
<title>cluster_AppModule</title>
<polygon fill="none" stroke="black" stroke-dasharray="1,5" points="8,-70 8,-195 1219,-195 1219,-70 8,-70"/>
</g>
<g id="clust3" class="cluster">
<title>cluster_AppModule_imports</title>
<polygon fill="none" stroke="black" points="154,-78 154,-130 1211,-130 1211,-78 154,-78"/>
</g>
<g id="clust6" class="cluster">
<title>cluster_AppModule_providers</title>
<polygon fill="none" stroke="black" points="16,-78 16,-130 146,-130 146,-78 16,-78"/>
</g>
<!-- CatsModule -->
<g id="node1" class="node">
<title>CatsModule</title>
<polygon fill="#8dd3c7" stroke="black" points="1203.44,-122 1200.44,-126 1179.44,-126 1176.44,-122 1118.56,-122 1118.56,-86 1203.44,-86 1203.44,-122"/>
<text text-anchor="middle" x="1161" y="-99.8" font-family="Times,serif" font-size="14.00">CatsModule</text>
</g>
<!-- AppModule -->
<g id="node10" class="node">
<title>AppModule</title>
<polygon fill="#8dd3c7" stroke="black" points="653.66,-187 650.66,-191 629.66,-191 626.66,-187 570.34,-187 570.34,-151 653.66,-151 653.66,-187"/>
<text text-anchor="middle" x="612" y="-164.8" font-family="Times,serif" font-size="14.00">AppModule</text>
</g>
<!-- CatsModule&#45;&gt;AppModule -->
<g id="edge1" class="edge">
<title>CatsModule&#45;&gt;AppModule</title>
<path fill="none" stroke="black" d="M1161,-122.01C1161,-144.49 1161,-180 1161,-180 1161,-180 663.71,-180 663.71,-180"/>
<polygon fill="black" stroke="black" points="663.71,-176.5 653.71,-180 663.71,-183.5 663.71,-176.5"/>
</g>
<!-- CoreModule -->
<g id="node2" class="node">
<title>CoreModule</title>
<polygon fill="#8dd3c7" stroke="black" points="1100.26,-122 1097.26,-126 1076.26,-126 1073.26,-122 1013.74,-122 1013.74,-86 1100.26,-86 1100.26,-122"/>
<text text-anchor="middle" x="1057" y="-99.8" font-family="Times,serif" font-size="14.00">CoreModule</text>
</g>
<!-- CoreModule&#45;&gt;AppModule -->
<g id="edge2" class="edge">
<title>CoreModule&#45;&gt;AppModule</title>
<path fill="none" stroke="black" d="M1057,-122.13C1057,-142.57 1057,-173 1057,-173 1057,-173 663.86,-173 663.86,-173"/>
<polygon fill="black" stroke="black" points="663.86,-169.5 653.86,-173 663.86,-176.5 663.86,-169.5"/>
</g>
<!-- HealthModule -->
<g id="node3" class="node">
<title>HealthModule</title>
<polygon fill="#8dd3c7" stroke="black" points="995.37,-122 992.37,-126 971.37,-126 968.37,-122 898.63,-122 898.63,-86 995.37,-86 995.37,-122"/>
<text text-anchor="middle" x="947" y="-99.8" font-family="Times,serif" font-size="14.00">HealthModule</text>
</g>
<!-- HealthModule&#45;&gt;AppModule -->
<g id="edge3" class="edge">
<title>HealthModule&#45;&gt;AppModule</title>
<path fill="none" stroke="black" d="M947,-122.27C947,-140.56 947,-166 947,-166 947,-166 663.75,-166 663.75,-166"/>
<polygon fill="black" stroke="black" points="663.75,-162.5 653.75,-166 663.75,-169.5 663.75,-162.5"/>
</g>
<!-- NestCacheModule -->
<g id="node4" class="node">
<title>NestCacheModule</title>
<polygon fill="#8dd3c7" stroke="black" points="880.19,-122 877.19,-126 856.19,-126 853.19,-122 759.81,-122 759.81,-86 880.19,-86 880.19,-122"/>
<text text-anchor="middle" x="820" y="-99.8" font-family="Times,serif" font-size="14.00">NestCacheModule</text>
</g>
<!-- NestCacheModule&#45;&gt;AppModule -->
<g id="edge4" class="edge">
<title>NestCacheModule&#45;&gt;AppModule</title>
<path fill="none" stroke="black" d="M820,-122.01C820,-138.05 820,-159 820,-159 820,-159 664.09,-159 664.09,-159"/>
<polygon fill="black" stroke="black" points="664.09,-155.5 654.09,-159 664.09,-162.5 664.09,-155.5"/>
</g>
<!-- NestConfigModule -->
<g id="node5" class="node">
<title>NestConfigModule</title>
<polygon fill="#8dd3c7" stroke="black" points="742.09,-122 739.09,-126 718.09,-126 715.09,-122 617.91,-122 617.91,-86 742.09,-86 742.09,-122"/>
<text text-anchor="middle" x="680" y="-99.8" font-family="Times,serif" font-size="14.00">NestConfigModule</text>
</g>
<!-- NestConfigModule&#45;&gt;AppModule -->
<g id="edge5" class="edge">
<title>NestConfigModule&#45;&gt;AppModule</title>
<path fill="none" stroke="black" d="M635.89,-122.11C635.89,-122.11 635.89,-140.99 635.89,-140.99"/>
<polygon fill="black" stroke="black" points="632.39,-140.99 635.89,-150.99 639.39,-140.99 632.39,-140.99"/>
</g>
<!-- NestPinoModule -->
<g id="node6" class="node">
<title>NestPinoModule</title>
<polygon fill="#8dd3c7" stroke="black" points="600.38,-122 597.38,-126 576.38,-126 573.38,-122 489.62,-122 489.62,-86 600.38,-86 600.38,-122"/>
<text text-anchor="middle" x="545" y="-99.8" font-family="Times,serif" font-size="14.00">NestPinoModule</text>
</g>
<!-- NestPinoModule&#45;&gt;AppModule -->
<g id="edge6" class="edge">
<title>NestPinoModule&#45;&gt;AppModule</title>
<path fill="none" stroke="black" d="M585.31,-122.11C585.31,-122.11 585.31,-140.99 585.31,-140.99"/>
<polygon fill="black" stroke="black" points="581.81,-140.99 585.31,-150.99 588.81,-140.99 581.81,-140.99"/>
</g>
<!-- PostModule -->
<g id="node7" class="node">
<title>PostModule</title>
<polygon fill="#8dd3c7" stroke="black" points="471.67,-122 468.67,-126 447.67,-126 444.67,-122 388.33,-122 388.33,-86 471.67,-86 471.67,-122"/>
<text text-anchor="middle" x="430" y="-99.8" font-family="Times,serif" font-size="14.00">PostModule</text>
</g>
<!-- PostModule&#45;&gt;AppModule -->
<g id="edge7" class="edge">
<title>PostModule&#45;&gt;AppModule</title>
<path fill="none" stroke="black" d="M430,-122.01C430,-138.05 430,-159 430,-159 430,-159 560.25,-159 560.25,-159"/>
<polygon fill="black" stroke="black" points="560.25,-162.5 570.25,-159 560.25,-155.5 560.25,-162.5"/>
</g>
<!-- RecipesModule -->
<g id="node8" class="node">
<title>RecipesModule</title>
<polygon fill="#8dd3c7" stroke="black" points="369.87,-122 366.87,-126 345.87,-126 342.87,-122 266.13,-122 266.13,-86 369.87,-86 369.87,-122"/>
<text text-anchor="middle" x="318" y="-99.8" font-family="Times,serif" font-size="14.00">RecipesModule</text>
</g>
<!-- RecipesModule&#45;&gt;AppModule -->
<g id="edge8" class="edge">
<title>RecipesModule&#45;&gt;AppModule</title>
<path fill="none" stroke="black" d="M318,-122.27C318,-140.56 318,-166 318,-166 318,-166 560.19,-166 560.19,-166"/>
<polygon fill="black" stroke="black" points="560.19,-169.5 570.19,-166 560.19,-162.5 560.19,-169.5"/>
</g>
<!-- UserModule -->
<g id="node9" class="node">
<title>UserModule</title>
<polygon fill="#8dd3c7" stroke="black" points="247.98,-122 244.98,-126 223.98,-126 220.98,-122 162.02,-122 162.02,-86 247.98,-86 247.98,-122"/>
<text text-anchor="middle" x="205" y="-99.8" font-family="Times,serif" font-size="14.00">UserModule</text>
</g>
<!-- UserModule&#45;&gt;AppModule -->
<g id="edge9" class="edge">
<title>UserModule&#45;&gt;AppModule</title>
<path fill="none" stroke="black" d="M205,-122.13C205,-142.57 205,-173 205,-173 205,-173 559.98,-173 559.98,-173"/>
<polygon fill="black" stroke="black" points="559.98,-176.5 569.98,-173 559.98,-169.5 559.98,-176.5"/>
</g>
<!-- AppService -->
<g id="node11" class="node">
<title>AppService</title>
<ellipse fill="#fdb462" stroke="black" cx="81" cy="-104" rx="56.74" ry="18"/>
<text text-anchor="middle" x="81" y="-99.8" font-family="Times,serif" font-size="14.00">AppService</text>
</g>
<!-- AppService&#45;&gt;AppModule -->
<g id="edge10" class="edge">
<title>AppService&#45;&gt;AppModule</title>
<path fill="none" stroke="black" d="M81,-122.01C81,-144.49 81,-180 81,-180 81,-180 560.33,-180 560.33,-180"/>
<polygon fill="black" stroke="black" points="560.33,-183.5 570.33,-180 560.33,-176.5 560.33,-183.5"/>
</g>
</g>
</svg>
