<?xml version="1.0" encoding="UTF-8" standalone="no"?>
<!DOCTYPE svg PUBLIC "-//W3C//DTD SVG 1.1//EN"
 "http://www.w3.org/Graphics/SVG/1.1/DTD/svg11.dtd">
<!-- Generated by graphviz version 2.47.0 (20210316.0004)
 -->
<!-- Title: dependencies Pages: 1 -->
<svg width="1906pt" height="306pt"
 viewBox="0.00 0.00 1906.00 306.00" xmlns="http://www.w3.org/2000/svg" xmlns:xlink="http://www.w3.org/1999/xlink">
<g id="graph0" class="graph" transform="scale(1 1) rotate(0) translate(4 302)">
<title>dependencies</title>
<polygon fill="white" stroke="transparent" points="-4,4 -4,-302 1902,-302 1902,4 -4,4"/>
<text text-anchor="start" x="928.01" y="-42.4" font-family="Times-12" font-weight="bold" font-size="14.00">Legend</text>
<polygon fill="#ffffb3" stroke="transparent" points="715,-10 715,-30 735,-30 735,-10 715,-10"/>
<text text-anchor="start" x="738.63" y="-15.4" font-family="Times-12" font-size="14.00"> &#160;Declarations</text>
<polygon fill="#8dd3c7" stroke="transparent" points="828,-10 828,-30 848,-30 848,-10 828,-10"/>
<text text-anchor="start" x="851.73" y="-15.4" font-family="Times-12" font-size="14.00"> &#160;Module</text>
<polygon fill="#80b1d3" stroke="transparent" points="914,-10 914,-30 934,-30 934,-10 914,-10"/>
<text text-anchor="start" x="937.78" y="-15.4" font-family="Times-12" font-size="14.00"> &#160;Bootstrap</text>
<polygon fill="#fdb462" stroke="transparent" points="1011,-10 1011,-30 1031,-30 1031,-10 1011,-10"/>
<text text-anchor="start" x="1034.67" y="-15.4" font-family="Times-12" font-size="14.00"> &#160;Providers</text>
<polygon fill="#fb8072" stroke="transparent" points="1107,-10 1107,-30 1127,-30 1127,-10 1107,-10"/>
<text text-anchor="start" x="1130.73" y="-15.4" font-family="Times-12" font-size="14.00"> &#160;Exports</text>
<g id="clust1" class="cluster">
<title>cluster_AppModule</title>
<polygon fill="none" stroke="black" stroke-dasharray="1,5" points="8,-146 8,-282 1218,-282 1218,-146 8,-146"/>
</g>
<g id="clust3" class="cluster">
<title>cluster_AppModule_imports</title>
<polygon fill="none" stroke="black" points="154,-154 154,-206 1210,-206 1210,-154 154,-154"/>
</g>
<g id="clust6" class="cluster">
<title>cluster_AppModule_providers</title>
<polygon fill="none" stroke="black" points="16,-154 16,-206 146,-206 146,-154 16,-154"/>
</g>
<g id="clust7" class="cluster">
<title>cluster_CatsModule</title>
<polygon fill="none" stroke="black" stroke-dasharray="1,5" points="260,-70 260,-138 406,-138 406,-70 260,-70"/>
</g>
<g id="clust12" class="cluster">
<title>cluster_CatsModule_providers</title>
<polygon fill="none" stroke="black" points="268,-78 268,-130 398,-130 398,-78 268,-78"/>
</g>
<g id="clust19" class="cluster">
<title>cluster_HealthModule</title>
<polygon fill="none" stroke="black" stroke-dasharray="1,5" points="1094,-70 1094,-138 1224,-138 1224,-70 1094,-70"/>
</g>
<g id="clust21" class="cluster">
<title>cluster_HealthModule_imports</title>
<polygon fill="none" stroke="black" points="1102,-78 1102,-130 1216,-130 1216,-78 1102,-78"/>
</g>
<g id="clust31" class="cluster">
<title>cluster_NestConfigModule</title>
<polygon fill="none" stroke="black" stroke-dasharray="1,5" points="1226,-222 1226,-290 1358,-290 1358,-222 1226,-222"/>
</g>
<g id="clust34" class="cluster">
<title>cluster_NestConfigModule_exports</title>
<polygon fill="none" stroke="black" points="1234,-230 1234,-282 1350,-282 1350,-230 1234,-230"/>
</g>
<g id="clust43" class="cluster">
<title>cluster_PostModule</title>
<polygon fill="none" stroke="black" stroke-dasharray="1,5" points="1366,-222 1366,-290 1622,-290 1622,-222 1366,-222"/>
</g>
<g id="clust46" class="cluster">
<title>cluster_PostModule_exports</title>
<polygon fill="none" stroke="black" points="1512,-230 1512,-282 1614,-282 1614,-230 1512,-230"/>
</g>
<g id="clust48" class="cluster">
<title>cluster_PostModule_providers</title>
<polygon fill="none" stroke="black" points="1374,-230 1374,-282 1504,-282 1504,-230 1374,-230"/>
</g>
<g id="clust49" class="cluster">
<title>cluster_PrismaModule</title>
<polygon fill="none" stroke="black" stroke-dasharray="1,5" points="1226,-146 1226,-214 1516,-214 1516,-146 1226,-146"/>
</g>
<g id="clust52" class="cluster">
<title>cluster_PrismaModule_exports</title>
<polygon fill="none" stroke="black" points="1392,-154 1392,-206 1508,-206 1508,-154 1392,-154"/>
</g>
<g id="clust54" class="cluster">
<title>cluster_PrismaModule_providers</title>
<polygon fill="none" stroke="black" points="1234,-154 1234,-206 1384,-206 1384,-154 1234,-154"/>
</g>
<g id="clust55" class="cluster">
<title>cluster_RecipesModule</title>
<polygon fill="none" stroke="black" stroke-dasharray="1,5" points="496,-70 496,-138 670,-138 670,-70 496,-70"/>
</g>
<g id="clust60" class="cluster">
<title>cluster_RecipesModule_providers</title>
<polygon fill="none" stroke="black" points="504,-78 504,-130 662,-130 662,-78 504,-78"/>
</g>
<g id="clust61" class="cluster">
<title>cluster_UserModule</title>
<polygon fill="none" stroke="black" stroke-dasharray="1,5" points="1630,-222 1630,-290 1890,-290 1890,-222 1630,-222"/>
</g>
<g id="clust64" class="cluster">
<title>cluster_UserModule_exports</title>
<polygon fill="none" stroke="black" points="1778,-230 1778,-282 1882,-282 1882,-230 1778,-230"/>
</g>
<g id="clust66" class="cluster">
<title>cluster_UserModule_providers</title>
<polygon fill="none" stroke="black" points="1638,-230 1638,-282 1770,-282 1770,-230 1638,-230"/>
</g>
<!-- CatsModule -->
<g id="node1" class="node">
<title>CatsModule</title>
<polygon fill="#8dd3c7" stroke="black" points="375.44,-198 372.44,-202 351.44,-202 348.44,-198 290.56,-198 290.56,-162 375.44,-162 375.44,-198"/>
<text text-anchor="middle" x="333" y="-175.8" font-family="Times,serif" font-size="14.00">CatsModule</text>
</g>
<!-- AppModule -->
<g id="node10" class="node">
<title>AppModule</title>
<polygon fill="#8dd3c7" stroke="black" points="680.66,-274 677.66,-278 656.66,-278 653.66,-274 597.34,-274 597.34,-238 680.66,-238 680.66,-274"/>
<text text-anchor="middle" x="639" y="-251.8" font-family="Times,serif" font-size="14.00">AppModule</text>
</g>
<!-- CatsModule&#45;&gt;AppModule -->
<g id="edge1" class="edge">
<title>CatsModule&#45;&gt;AppModule</title>
<path fill="none" stroke="black" d="M333,-198.04C333,-219.66 333,-253 333,-253 333,-253 587.09,-253 587.09,-253"/>
<polygon fill="black" stroke="black" points="587.09,-256.5 597.09,-253 587.09,-249.5 587.09,-256.5"/>
</g>
<!-- CoreModule -->
<g id="node2" class="node">
<title>CoreModule</title>
<polygon fill="#8dd3c7" stroke="black" points="739.26,-198 736.26,-202 715.26,-202 712.26,-198 652.74,-198 652.74,-162 739.26,-162 739.26,-198"/>
<text text-anchor="middle" x="696" y="-175.8" font-family="Times,serif" font-size="14.00">CoreModule</text>
</g>
<!-- CoreModule&#45;&gt;AppModule -->
<g id="edge2" class="edge">
<title>CoreModule&#45;&gt;AppModule</title>
<path fill="none" stroke="black" d="M666.72,-198.01C666.72,-198.01 666.72,-227.85 666.72,-227.85"/>
<polygon fill="black" stroke="black" points="663.22,-227.85 666.72,-237.85 670.22,-227.85 663.22,-227.85"/>
</g>
<!-- HealthModule -->
<g id="node3" class="node">
<title>HealthModule</title>
<polygon fill="#8dd3c7" stroke="black" points="854.37,-198 851.37,-202 830.37,-202 827.37,-198 757.63,-198 757.63,-162 854.37,-162 854.37,-198"/>
<text text-anchor="middle" x="806" y="-175.8" font-family="Times,serif" font-size="14.00">HealthModule</text>
</g>
<!-- HealthModule&#45;&gt;AppModule -->
<g id="edge3" class="edge">
<title>HealthModule&#45;&gt;AppModule</title>
<path fill="none" stroke="black" d="M806,-198.03C806,-218.77 806,-250 806,-250 806,-250 690.71,-250 690.71,-250"/>
<polygon fill="black" stroke="black" points="690.71,-246.5 680.71,-250 690.71,-253.5 690.71,-246.5"/>
</g>
<!-- NestCacheModule -->
<g id="node4" class="node">
<title>NestCacheModule</title>
<polygon fill="#8dd3c7" stroke="black" points="513.19,-198 510.19,-202 489.19,-202 486.19,-198 392.81,-198 392.81,-162 513.19,-162 513.19,-198"/>
<text text-anchor="middle" x="453" y="-175.8" font-family="Times,serif" font-size="14.00">NestCacheModule</text>
</g>
<!-- NestCacheModule&#45;&gt;AppModule -->
<g id="edge4" class="edge">
<title>NestCacheModule&#45;&gt;AppModule</title>
<path fill="none" stroke="black" d="M453,-198.03C453,-217.58 453,-246 453,-246 453,-246 587.26,-246 587.26,-246"/>
<polygon fill="black" stroke="black" points="587.26,-249.5 597.26,-246 587.26,-242.5 587.26,-249.5"/>
</g>
<!-- NestConfigModule -->
<g id="node5" class="node">
<title>NestConfigModule</title>
<polygon fill="#8dd3c7" stroke="black" points="996.09,-198 993.09,-202 972.09,-202 969.09,-198 871.91,-198 871.91,-162 996.09,-162 996.09,-198"/>
<text text-anchor="middle" x="934" y="-175.8" font-family="Times,serif" font-size="14.00">NestConfigModule</text>
</g>
<!-- NestConfigModule&#45;&gt;AppModule -->
<g id="edge5" class="edge">
<title>NestConfigModule&#45;&gt;AppModule</title>
<path fill="none" stroke="black" d="M913.32,-198.01C913.32,-220.49 913.32,-256 913.32,-256 913.32,-256 690.66,-256 690.66,-256"/>
<polygon fill="black" stroke="black" points="690.66,-252.5 680.66,-256 690.66,-259.5 690.66,-252.5"/>
</g>
<!-- ConfigService  -->
<g id="node14" class="node">
<title>ConfigService </title>
<polygon fill="#fb8072" stroke="black" points="1342.37,-274 1241.63,-274 1241.63,-238 1342.37,-238 1342.37,-274"/>
<text text-anchor="middle" x="1292" y="-251.8" font-family="Times,serif" font-size="14.00">ConfigService </text>
</g>
<!-- NestConfigModule&#45;&gt;ConfigService  -->
<g id="edge13" class="edge">
<title>NestConfigModule&#45;&gt;ConfigService </title>
<path fill="none" stroke="black" stroke-dasharray="5,2" d="M954.68,-198.17C954.68,-217.09 954.68,-244 954.68,-244 954.68,-244 1231.5,-244 1231.5,-244"/>
<polygon fill="black" stroke="black" points="1231.5,-247.5 1241.5,-244 1231.5,-240.5 1231.5,-247.5"/>
</g>
<!-- NestPinoModule -->
<g id="node6" class="node">
<title>NestPinoModule</title>
<polygon fill="#8dd3c7" stroke="black" points="272.38,-198 269.38,-202 248.38,-202 245.38,-198 161.62,-198 161.62,-162 272.38,-162 272.38,-198"/>
<text text-anchor="middle" x="217" y="-175.8" font-family="Times,serif" font-size="14.00">NestPinoModule</text>
</g>
<!-- NestPinoModule&#45;&gt;AppModule -->
<g id="edge6" class="edge">
<title>NestPinoModule&#45;&gt;AppModule</title>
<path fill="none" stroke="black" d="M217,-198.15C217,-221.76 217,-260 217,-260 217,-260 586.99,-260 586.99,-260"/>
<polygon fill="black" stroke="black" points="586.99,-263.5 596.99,-260 586.99,-256.5 586.99,-263.5"/>
</g>
<!-- PostModule -->
<g id="node7" class="node">
<title>PostModule</title>
<polygon fill="#8dd3c7" stroke="black" points="1097.67,-198 1094.67,-202 1073.67,-202 1070.67,-198 1014.33,-198 1014.33,-162 1097.67,-162 1097.67,-198"/>
<text text-anchor="middle" x="1056" y="-175.8" font-family="Times,serif" font-size="14.00">PostModule</text>
</g>
<!-- PostModule&#45;&gt;AppModule -->
<g id="edge7" class="edge">
<title>PostModule&#45;&gt;AppModule</title>
<path fill="none" stroke="black" d="M1056,-198.2C1056,-222.36 1056,-262 1056,-262 1056,-262 690.89,-262 690.89,-262"/>
<polygon fill="black" stroke="black" points="690.89,-258.5 680.89,-262 690.89,-265.5 690.89,-258.5"/>
</g>
<!-- PostService  -->
<g id="node15" class="node">
<title>PostService </title>
<polygon fill="#fb8072" stroke="black" points="1605.6,-274 1520.4,-274 1520.4,-238 1605.6,-238 1605.6,-274"/>
<text text-anchor="middle" x="1563" y="-251.8" font-family="Times,serif" font-size="14.00">PostService </text>
</g>
<!-- PostModule&#45;&gt;PostService  -->
<g id="edge15" class="edge">
<title>PostModule&#45;&gt;PostService </title>
<path fill="none" stroke="black" stroke-dasharray="5,2" d="M1035.08,-198.06C1035.08,-209.44 1035.08,-222 1035.08,-222 1035.08,-222 1563,-222 1563,-222 1563,-222 1563,-227.81 1563,-227.81"/>
<polygon fill="black" stroke="black" points="1559.5,-227.81 1563,-237.81 1566.5,-227.81 1559.5,-227.81"/>
</g>
<!-- RecipesModule -->
<g id="node8" class="node">
<title>RecipesModule</title>
<polygon fill="#8dd3c7" stroke="black" points="634.87,-198 631.87,-202 610.87,-202 607.87,-198 531.13,-198 531.13,-162 634.87,-162 634.87,-198"/>
<text text-anchor="middle" x="583" y="-175.8" font-family="Times,serif" font-size="14.00">RecipesModule</text>
</g>
<!-- RecipesModule&#45;&gt;AppModule -->
<g id="edge8" class="edge">
<title>RecipesModule&#45;&gt;AppModule</title>
<path fill="none" stroke="black" d="M616.05,-198.01C616.05,-198.01 616.05,-227.85 616.05,-227.85"/>
<polygon fill="black" stroke="black" points="612.55,-227.85 616.05,-237.85 619.55,-227.85 612.55,-227.85"/>
</g>
<!-- UserModule -->
<g id="node9" class="node">
<title>UserModule</title>
<polygon fill="#8dd3c7" stroke="black" points="1201.98,-198 1198.98,-202 1177.98,-202 1174.98,-198 1116.02,-198 1116.02,-162 1201.98,-162 1201.98,-198"/>
<text text-anchor="middle" x="1159" y="-175.8" font-family="Times,serif" font-size="14.00">UserModule</text>
</g>
<!-- UserModule&#45;&gt;AppModule -->
<g id="edge9" class="edge">
<title>UserModule&#45;&gt;AppModule</title>
<path fill="none" stroke="black" d="M1180.49,-198.23C1180.49,-224.01 1180.49,-268 1180.49,-268 1180.49,-268 691.04,-268 691.04,-268"/>
<polygon fill="black" stroke="black" points="691.04,-264.5 681.04,-268 691.04,-271.5 691.04,-264.5"/>
</g>
<!-- UserService  -->
<g id="node20" class="node">
<title>UserService </title>
<polygon fill="#fb8072" stroke="black" points="1873.9,-274 1786.1,-274 1786.1,-238 1873.9,-238 1873.9,-274"/>
<text text-anchor="middle" x="1830" y="-251.8" font-family="Times,serif" font-size="14.00">UserService </text>
</g>
<!-- UserModule&#45;&gt;UserService  -->
<g id="edge21" class="edge">
<title>UserModule&#45;&gt;UserService </title>
<path fill="none" stroke="black" stroke-dasharray="5,2" d="M1137.51,-198.06C1137.51,-202.49 1137.51,-206 1137.51,-206 1137.51,-206 1830,-206 1830,-206 1830,-206 1830,-227.95 1830,-227.95"/>
<polygon fill="black" stroke="black" points="1826.5,-227.95 1830,-237.95 1833.5,-227.95 1826.5,-227.95"/>
</g>
<!-- AppService -->
<g id="node11" class="node">
<title>AppService</title>
<ellipse fill="#fdb462" stroke="black" cx="81" cy="-180" rx="56.74" ry="18"/>
<text text-anchor="middle" x="81" y="-175.8" font-family="Times,serif" font-size="14.00">AppService</text>
</g>
<!-- AppService&#45;&gt;AppModule -->
<g id="edge10" class="edge">
<title>AppService&#45;&gt;AppModule</title>
<path fill="none" stroke="black" d="M81,-198.03C81,-223.51 81,-267 81,-267 81,-267 587.06,-267 587.06,-267"/>
<polygon fill="black" stroke="black" points="587.06,-270.5 597.06,-267 587.06,-263.5 587.06,-270.5"/>
</g>
<!-- CatsService -->
<g id="node12" class="node">
<title>CatsService</title>
<ellipse fill="#fdb462" stroke="black" cx="333" cy="-104" rx="57.32" ry="18"/>
<text text-anchor="middle" x="333" y="-99.8" font-family="Times,serif" font-size="14.00">CatsService</text>
</g>
<!-- CatsService&#45;&gt;CatsModule -->
<g id="edge11" class="edge">
<title>CatsService&#45;&gt;CatsModule</title>
<path fill="none" stroke="black" d="M333,-122.01C333,-122.01 333,-151.85 333,-151.85"/>
<polygon fill="black" stroke="black" points="329.5,-151.85 333,-161.85 336.5,-151.85 329.5,-151.85"/>
</g>
<!-- PrismaModule -->
<g id="node13" class="node">
<title>PrismaModule</title>
<polygon fill="#8dd3c7" stroke="black" points="1208.43,-122 1205.43,-126 1184.43,-126 1181.43,-122 1109.57,-122 1109.57,-86 1208.43,-86 1208.43,-122"/>
<text text-anchor="middle" x="1159" y="-99.8" font-family="Times,serif" font-size="14.00">PrismaModule</text>
</g>
<!-- PrismaModule&#45;&gt;HealthModule -->
<g id="edge12" class="edge">
<title>PrismaModule&#45;&gt;HealthModule</title>
<path fill="none" stroke="black" d="M1109.55,-98C1012.39,-98 806,-98 806,-98 806,-98 806,-151.8 806,-151.8"/>
<polygon fill="black" stroke="black" points="802.5,-151.8 806,-161.8 809.5,-151.8 802.5,-151.8"/>
</g>
<!-- PrismaModule&#45;&gt;PostModule -->
<g id="edge14" class="edge">
<title>PrismaModule&#45;&gt;PostModule</title>
<path fill="none" stroke="black" d="M1109.61,-110C1083.18,-110 1056,-110 1056,-110 1056,-110 1056,-151.97 1056,-151.97"/>
<polygon fill="black" stroke="black" points="1052.5,-151.97 1056,-161.97 1059.5,-151.97 1052.5,-151.97"/>
</g>
<!-- PrismaModule&#45;&gt;UserModule -->
<g id="edge20" class="edge">
<title>PrismaModule&#45;&gt;UserModule</title>
<path fill="none" stroke="black" d="M1159,-122.01C1159,-122.01 1159,-151.85 1159,-151.85"/>
<polygon fill="black" stroke="black" points="1155.5,-151.85 1159,-161.85 1162.5,-151.85 1155.5,-151.85"/>
</g>
<!-- PrismaService  -->
<g id="node17" class="node">
<title>PrismaService </title>
<polygon fill="#fb8072" stroke="black" points="1500.36,-198 1399.64,-198 1399.64,-162 1500.36,-162 1500.36,-198"/>
<text text-anchor="middle" x="1450" y="-175.8" font-family="Times,serif" font-size="14.00">PrismaService </text>
</g>
<!-- PrismaModule&#45;&gt;PrismaService  -->
<g id="edge17" class="edge">
<title>PrismaModule&#45;&gt;PrismaService </title>
<path fill="none" stroke="black" stroke-dasharray="5,2" d="M1208.36,-98C1291.39,-98 1450,-98 1450,-98 1450,-98 1450,-151.8 1450,-151.8"/>
<polygon fill="black" stroke="black" points="1446.5,-151.8 1450,-161.8 1453.5,-151.8 1446.5,-151.8"/>
</g>
<!-- PostService -->
<g id="node16" class="node">
<title>PostService</title>
<ellipse fill="#fdb462" stroke="black" cx="1439" cy="-256" rx="56.76" ry="18"/>
<text text-anchor="middle" x="1439" y="-251.8" font-family="Times,serif" font-size="14.00">PostService</text>
</g>
<!-- PostService&#45;&gt;PostModule -->
<g id="edge16" class="edge">
<title>PostService&#45;&gt;PostModule</title>
<path fill="none" stroke="black" d="M1391.1,-246.32C1391.1,-238.93 1391.1,-230 1391.1,-230 1391.1,-230 1076.92,-230 1076.92,-230 1076.92,-230 1076.92,-208.05 1076.92,-208.05"/>
<polygon fill="black" stroke="black" points="1080.42,-208.05 1076.92,-198.05 1073.42,-208.05 1080.42,-208.05"/>
</g>
<!-- PrismaService -->
<g id="node18" class="node">
<title>PrismaService</title>
<ellipse fill="#fdb462" stroke="black" cx="1309" cy="-180" rx="66.63" ry="18"/>
<text text-anchor="middle" x="1309" y="-175.8" font-family="Times,serif" font-size="14.00">PrismaService</text>
</g>
<!-- PrismaService&#45;&gt;PrismaModule -->
<g id="edge18" class="edge">
<title>PrismaService&#45;&gt;PrismaModule</title>
<path fill="none" stroke="black" d="M1309,-161.97C1309,-141.23 1309,-110 1309,-110 1309,-110 1218.53,-110 1218.53,-110"/>
<polygon fill="black" stroke="black" points="1218.53,-106.5 1208.53,-110 1218.53,-113.5 1218.53,-106.5"/>
</g>
<!-- RecipesService -->
<g id="node19" class="node">
<title>RecipesService</title>
<ellipse fill="#fdb462" stroke="black" cx="583" cy="-104" rx="70.62" ry="18"/>
<text text-anchor="middle" x="583" y="-99.8" font-family="Times,serif" font-size="14.00">RecipesService</text>
</g>
<!-- RecipesService&#45;&gt;RecipesModule -->
<g id="edge19" class="edge">
<title>RecipesService&#45;&gt;RecipesModule</title>
<path fill="none" stroke="black" d="M583,-122.01C583,-122.01 583,-151.85 583,-151.85"/>
<polygon fill="black" stroke="black" points="579.5,-151.85 583,-161.85 586.5,-151.85 579.5,-151.85"/>
</g>
<!-- UserService -->
<g id="node21" class="node">
<title>UserService</title>
<ellipse fill="#fdb462" stroke="black" cx="1704" cy="-256" rx="58.44" ry="18"/>
<text text-anchor="middle" x="1704" y="-251.8" font-family="Times,serif" font-size="14.00">UserService</text>
</g>
<!-- UserService&#45;&gt;UserModule -->
<g id="edge22" class="edge">
<title>UserService&#45;&gt;UserModule</title>
<path fill="none" stroke="black" d="M1704,-237.94C1704,-226.56 1704,-214 1704,-214 1704,-214 1159,-214 1159,-214 1159,-214 1159,-208.19 1159,-208.19"/>
<polygon fill="black" stroke="black" points="1162.5,-208.19 1159,-198.19 1155.5,-208.19 1162.5,-208.19"/>
</g>
</g>
</svg>
