<?xml version="1.0" encoding="UTF-8" standalone="no"?>
<!DOCTYPE svg PUBLIC "-//W3C//DTD SVG 1.1//EN"
 "http://www.w3.org/Graphics/SVG/1.1/DTD/svg11.dtd">
<!-- Generated by graphviz version 2.47.0 (20210316.0004)
 -->
<!-- Title: dependencies Pages: 1 -->
<svg width="1768pt" height="306pt"
 viewBox="0.00 0.00 1768.00 306.00" xmlns="http://www.w3.org/2000/svg" xmlns:xlink="http://www.w3.org/1999/xlink">
<g id="graph0" class="graph" transform="scale(1 1) rotate(0) translate(4 302)">
<title>dependencies</title>
<polygon fill="white" stroke="transparent" points="-4,4 -4,-302 1764,-302 1764,4 -4,4"/>
<text text-anchor="start" x="859.01" y="-42.4" font-family="Times-12" font-weight="bold" font-size="14.00">Legend</text>
<polygon fill="#ffffb3" stroke="transparent" points="646,-10 646,-30 666,-30 666,-10 646,-10"/>
<text text-anchor="start" x="669.63" y="-15.4" font-family="Times-12" font-size="14.00"> &#160;Declarations</text>
<polygon fill="#8dd3c7" stroke="transparent" points="759,-10 759,-30 779,-30 779,-10 759,-10"/>
<text text-anchor="start" x="782.73" y="-15.4" font-family="Times-12" font-size="14.00"> &#160;Module</text>
<polygon fill="#80b1d3" stroke="transparent" points="845,-10 845,-30 865,-30 865,-10 845,-10"/>
<text text-anchor="start" x="868.78" y="-15.4" font-family="Times-12" font-size="14.00"> &#160;Bootstrap</text>
<polygon fill="#fdb462" stroke="transparent" points="942,-10 942,-30 962,-30 962,-10 942,-10"/>
<text text-anchor="start" x="965.67" y="-15.4" font-family="Times-12" font-size="14.00"> &#160;Providers</text>
<polygon fill="#fb8072" stroke="transparent" points="1038,-10 1038,-30 1058,-30 1058,-10 1038,-10"/>
<text text-anchor="start" x="1061.73" y="-15.4" font-family="Times-12" font-size="14.00"> &#160;Exports</text>
<g id="clust1" class="cluster">
<title>cluster_AppModule</title>
<polygon fill="none" stroke="black" stroke-dasharray="1,5" points="8,-146 8,-282 1080,-282 1080,-146 8,-146"/>
</g>
<g id="clust3" class="cluster">
<title>cluster_AppModule_imports</title>
<polygon fill="none" stroke="black" points="154,-154 154,-206 1072,-206 1072,-154 154,-154"/>
</g>
<g id="clust6" class="cluster">
<title>cluster_AppModule_providers</title>
<polygon fill="none" stroke="black" points="16,-154 16,-206 146,-206 146,-154 16,-154"/>
</g>
<g id="clust7" class="cluster">
<title>cluster_CatsModule</title>
<polygon fill="none" stroke="black" stroke-dasharray="1,5" points="103,-70 103,-138 249,-138 249,-70 103,-70"/>
</g>
<g id="clust12" class="cluster">
<title>cluster_CatsModule_providers</title>
<polygon fill="none" stroke="black" points="111,-78 111,-130 241,-130 241,-78 111,-78"/>
</g>
<g id="clust19" class="cluster">
<title>cluster_HealthModule</title>
<polygon fill="none" stroke="black" stroke-dasharray="1,5" points="956,-70 956,-138 1086,-138 1086,-70 956,-70"/>
</g>
<g id="clust21" class="cluster">
<title>cluster_HealthModule_imports</title>
<polygon fill="none" stroke="black" points="964,-78 964,-130 1078,-130 1078,-78 964,-78"/>
</g>
<g id="clust25" class="cluster">
<title>cluster_NestConfigModule</title>
<polygon fill="none" stroke="black" stroke-dasharray="1,5" points="1088,-222 1088,-290 1220,-290 1220,-222 1088,-222"/>
</g>
<g id="clust28" class="cluster">
<title>cluster_NestConfigModule_exports</title>
<polygon fill="none" stroke="black" points="1096,-230 1096,-282 1212,-282 1212,-230 1096,-230"/>
</g>
<g id="clust37" class="cluster">
<title>cluster_PostModule</title>
<polygon fill="none" stroke="black" stroke-dasharray="1,5" points="1228,-222 1228,-290 1484,-290 1484,-222 1228,-222"/>
</g>
<g id="clust40" class="cluster">
<title>cluster_PostModule_exports</title>
<polygon fill="none" stroke="black" points="1374,-230 1374,-282 1476,-282 1476,-230 1374,-230"/>
</g>
<g id="clust42" class="cluster">
<title>cluster_PostModule_providers</title>
<polygon fill="none" stroke="black" points="1236,-230 1236,-282 1366,-282 1366,-230 1236,-230"/>
</g>
<g id="clust43" class="cluster">
<title>cluster_PrismaModule</title>
<polygon fill="none" stroke="black" stroke-dasharray="1,5" points="1088,-146 1088,-214 1378,-214 1378,-146 1088,-146"/>
</g>
<g id="clust46" class="cluster">
<title>cluster_PrismaModule_exports</title>
<polygon fill="none" stroke="black" points="1254,-154 1254,-206 1370,-206 1370,-154 1254,-154"/>
</g>
<g id="clust48" class="cluster">
<title>cluster_PrismaModule_providers</title>
<polygon fill="none" stroke="black" points="1096,-154 1096,-206 1246,-206 1246,-154 1096,-154"/>
</g>
<g id="clust49" class="cluster">
<title>cluster_RecipesModule</title>
<polygon fill="none" stroke="black" stroke-dasharray="1,5" points="257,-70 257,-138 431,-138 431,-70 257,-70"/>
</g>
<g id="clust54" class="cluster">
<title>cluster_RecipesModule_providers</title>
<polygon fill="none" stroke="black" points="265,-78 265,-130 423,-130 423,-78 265,-78"/>
</g>
<g id="clust55" class="cluster">
<title>cluster_UserModule</title>
<polygon fill="none" stroke="black" stroke-dasharray="1,5" points="1492,-222 1492,-290 1752,-290 1752,-222 1492,-222"/>
</g>
<g id="clust58" class="cluster">
<title>cluster_UserModule_exports</title>
<polygon fill="none" stroke="black" points="1640,-230 1640,-282 1744,-282 1744,-230 1640,-230"/>
</g>
<g id="clust60" class="cluster">
<title>cluster_UserModule_providers</title>
<polygon fill="none" stroke="black" points="1500,-230 1500,-282 1632,-282 1632,-230 1500,-230"/>
</g>
<!-- CatsModule -->
<g id="node1" class="node">
<title>CatsModule</title>
<polygon fill="#8dd3c7" stroke="black" points="246.44,-198 243.44,-202 222.44,-202 219.44,-198 161.56,-198 161.56,-162 246.44,-162 246.44,-198"/>
<text text-anchor="middle" x="204" y="-175.8" font-family="Times,serif" font-size="14.00">CatsModule</text>
</g>
<!-- AppModule -->
<g id="node9" class="node">
<title>AppModule</title>
<polygon fill="#8dd3c7" stroke="black" points="585.66,-274 582.66,-278 561.66,-278 558.66,-274 502.34,-274 502.34,-238 585.66,-238 585.66,-274"/>
<text text-anchor="middle" x="544" y="-251.8" font-family="Times,serif" font-size="14.00">AppModule</text>
</g>
<!-- CatsModule&#45;&gt;AppModule -->
<g id="edge1" class="edge">
<title>CatsModule&#45;&gt;AppModule</title>
<path fill="none" stroke="black" d="M204,-198.15C204,-221.76 204,-260 204,-260 204,-260 492.31,-260 492.31,-260"/>
<polygon fill="black" stroke="black" points="492.31,-263.5 502.31,-260 492.31,-256.5 492.31,-263.5"/>
</g>
<!-- CoreModule -->
<g id="node2" class="node">
<title>CoreModule</title>
<polygon fill="#8dd3c7" stroke="black" points="587.26,-198 584.26,-202 563.26,-202 560.26,-198 500.74,-198 500.74,-162 587.26,-162 587.26,-198"/>
<text text-anchor="middle" x="544" y="-175.8" font-family="Times,serif" font-size="14.00">CoreModule</text>
</g>
<!-- CoreModule&#45;&gt;AppModule -->
<g id="edge2" class="edge">
<title>CoreModule&#45;&gt;AppModule</title>
<path fill="none" stroke="black" d="M544,-198.01C544,-198.01 544,-227.85 544,-227.85"/>
<polygon fill="black" stroke="black" points="540.5,-227.85 544,-237.85 547.5,-227.85 540.5,-227.85"/>
</g>
<!-- HealthModule -->
<g id="node3" class="node">
<title>HealthModule</title>
<polygon fill="#8dd3c7" stroke="black" points="482.37,-198 479.37,-202 458.37,-202 455.37,-198 385.63,-198 385.63,-162 482.37,-162 482.37,-198"/>
<text text-anchor="middle" x="434" y="-175.8" font-family="Times,serif" font-size="14.00">HealthModule</text>
</g>
<!-- HealthModule&#45;&gt;AppModule -->
<g id="edge3" class="edge">
<title>HealthModule&#45;&gt;AppModule</title>
<path fill="none" stroke="black" d="M434,-198.03C434,-217.58 434,-246 434,-246 434,-246 492.1,-246 492.1,-246"/>
<polygon fill="black" stroke="black" points="492.1,-249.5 502.1,-246 492.1,-242.5 492.1,-249.5"/>
</g>
<!-- NestConfigModule -->
<g id="node4" class="node">
<title>NestConfigModule</title>
<polygon fill="#8dd3c7" stroke="black" points="858.09,-198 855.09,-202 834.09,-202 831.09,-198 733.91,-198 733.91,-162 858.09,-162 858.09,-198"/>
<text text-anchor="middle" x="796" y="-175.8" font-family="Times,serif" font-size="14.00">NestConfigModule</text>
</g>
<!-- NestConfigModule&#45;&gt;AppModule -->
<g id="edge4" class="edge">
<title>NestConfigModule&#45;&gt;AppModule</title>
<path fill="none" stroke="black" d="M775.32,-198.01C775.32,-220.49 775.32,-256 775.32,-256 775.32,-256 595.89,-256 595.89,-256"/>
<polygon fill="black" stroke="black" points="595.89,-252.5 585.89,-256 595.89,-259.5 595.89,-252.5"/>
</g>
<!-- ConfigService  -->
<g id="node13" class="node">
<title>ConfigService </title>
<polygon fill="#fb8072" stroke="black" points="1204.37,-274 1103.63,-274 1103.63,-238 1204.37,-238 1204.37,-274"/>
<text text-anchor="middle" x="1154" y="-251.8" font-family="Times,serif" font-size="14.00">ConfigService </text>
</g>
<!-- NestConfigModule&#45;&gt;ConfigService  -->
<g id="edge12" class="edge">
<title>NestConfigModule&#45;&gt;ConfigService </title>
<path fill="none" stroke="black" stroke-dasharray="5,2" d="M816.68,-198.17C816.68,-217.09 816.68,-244 816.68,-244 816.68,-244 1093.5,-244 1093.5,-244"/>
<polygon fill="black" stroke="black" points="1093.5,-247.5 1103.5,-244 1093.5,-240.5 1093.5,-247.5"/>
</g>
<!-- NestPinoModule -->
<g id="node5" class="node">
<title>NestPinoModule</title>
<polygon fill="#8dd3c7" stroke="black" points="716.38,-198 713.38,-202 692.38,-202 689.38,-198 605.62,-198 605.62,-162 716.38,-162 716.38,-198"/>
<text text-anchor="middle" x="661" y="-175.8" font-family="Times,serif" font-size="14.00">NestPinoModule</text>
</g>
<!-- NestPinoModule&#45;&gt;AppModule -->
<g id="edge5" class="edge">
<title>NestPinoModule&#45;&gt;AppModule</title>
<path fill="none" stroke="black" d="M661,-198.03C661,-218.77 661,-250 661,-250 661,-250 595.91,-250 595.91,-250"/>
<polygon fill="black" stroke="black" points="595.91,-246.5 585.91,-250 595.91,-253.5 595.91,-246.5"/>
</g>
<!-- PostModule -->
<g id="node6" class="node">
<title>PostModule</title>
<polygon fill="#8dd3c7" stroke="black" points="959.67,-198 956.67,-202 935.67,-202 932.67,-198 876.33,-198 876.33,-162 959.67,-162 959.67,-198"/>
<text text-anchor="middle" x="918" y="-175.8" font-family="Times,serif" font-size="14.00">PostModule</text>
</g>
<!-- PostModule&#45;&gt;AppModule -->
<g id="edge6" class="edge">
<title>PostModule&#45;&gt;AppModule</title>
<path fill="none" stroke="black" d="M938.92,-198.2C938.92,-222.36 938.92,-262 938.92,-262 938.92,-262 595.89,-262 595.89,-262"/>
<polygon fill="black" stroke="black" points="595.89,-258.5 585.89,-262 595.89,-265.5 595.89,-258.5"/>
</g>
<!-- PostService  -->
<g id="node14" class="node">
<title>PostService </title>
<polygon fill="#fb8072" stroke="black" points="1467.6,-274 1382.4,-274 1382.4,-238 1467.6,-238 1467.6,-274"/>
<text text-anchor="middle" x="1425" y="-251.8" font-family="Times,serif" font-size="14.00">PostService </text>
</g>
<!-- PostModule&#45;&gt;PostService  -->
<g id="edge14" class="edge">
<title>PostModule&#45;&gt;PostService </title>
<path fill="none" stroke="black" stroke-dasharray="5,2" d="M897.08,-198.06C897.08,-209.44 897.08,-222 897.08,-222 897.08,-222 1425,-222 1425,-222 1425,-222 1425,-227.81 1425,-227.81"/>
<polygon fill="black" stroke="black" points="1421.5,-227.81 1425,-237.81 1428.5,-227.81 1421.5,-227.81"/>
</g>
<!-- RecipesModule -->
<g id="node7" class="node">
<title>RecipesModule</title>
<polygon fill="#8dd3c7" stroke="black" points="367.87,-198 364.87,-202 343.87,-202 340.87,-198 264.13,-198 264.13,-162 367.87,-162 367.87,-198"/>
<text text-anchor="middle" x="316" y="-175.8" font-family="Times,serif" font-size="14.00">RecipesModule</text>
</g>
<!-- RecipesModule&#45;&gt;AppModule -->
<g id="edge7" class="edge">
<title>RecipesModule&#45;&gt;AppModule</title>
<path fill="none" stroke="black" d="M316,-198.04C316,-219.66 316,-253 316,-253 316,-253 492.18,-253 492.18,-253"/>
<polygon fill="black" stroke="black" points="492.18,-256.5 502.18,-253 492.18,-249.5 492.18,-256.5"/>
</g>
<!-- UserModule -->
<g id="node8" class="node">
<title>UserModule</title>
<polygon fill="#8dd3c7" stroke="black" points="1063.98,-198 1060.98,-202 1039.98,-202 1036.98,-198 978.02,-198 978.02,-162 1063.98,-162 1063.98,-198"/>
<text text-anchor="middle" x="1021" y="-175.8" font-family="Times,serif" font-size="14.00">UserModule</text>
</g>
<!-- UserModule&#45;&gt;AppModule -->
<g id="edge8" class="edge">
<title>UserModule&#45;&gt;AppModule</title>
<path fill="none" stroke="black" d="M1042.49,-198.23C1042.49,-224.01 1042.49,-268 1042.49,-268 1042.49,-268 596.07,-268 596.07,-268"/>
<polygon fill="black" stroke="black" points="596.07,-264.5 586.07,-268 596.07,-271.5 596.07,-264.5"/>
</g>
<!-- UserService  -->
<g id="node19" class="node">
<title>UserService </title>
<polygon fill="#fb8072" stroke="black" points="1735.9,-274 1648.1,-274 1648.1,-238 1735.9,-238 1735.9,-274"/>
<text text-anchor="middle" x="1692" y="-251.8" font-family="Times,serif" font-size="14.00">UserService </text>
</g>
<!-- UserModule&#45;&gt;UserService  -->
<g id="edge20" class="edge">
<title>UserModule&#45;&gt;UserService </title>
<path fill="none" stroke="black" stroke-dasharray="5,2" d="M999.51,-198.06C999.51,-202.49 999.51,-206 999.51,-206 999.51,-206 1692,-206 1692,-206 1692,-206 1692,-227.95 1692,-227.95"/>
<polygon fill="black" stroke="black" points="1688.5,-227.95 1692,-237.95 1695.5,-227.95 1688.5,-227.95"/>
</g>
<!-- AppService -->
<g id="node10" class="node">
<title>AppService</title>
<ellipse fill="#fdb462" stroke="black" cx="81" cy="-180" rx="56.74" ry="18"/>
<text text-anchor="middle" x="81" y="-175.8" font-family="Times,serif" font-size="14.00">AppService</text>
</g>
<!-- AppService&#45;&gt;AppModule -->
<g id="edge9" class="edge">
<title>AppService&#45;&gt;AppModule</title>
<path fill="none" stroke="black" d="M81,-198.03C81,-223.51 81,-267 81,-267 81,-267 492.1,-267 492.1,-267"/>
<polygon fill="black" stroke="black" points="492.1,-270.5 502.1,-267 492.1,-263.5 492.1,-270.5"/>
</g>
<!-- CatsService -->
<g id="node11" class="node">
<title>CatsService</title>
<ellipse fill="#fdb462" stroke="black" cx="176" cy="-104" rx="57.32" ry="18"/>
<text text-anchor="middle" x="176" y="-99.8" font-family="Times,serif" font-size="14.00">CatsService</text>
</g>
<!-- CatsService&#45;&gt;CatsModule -->
<g id="edge10" class="edge">
<title>CatsService&#45;&gt;CatsModule</title>
<path fill="none" stroke="black" d="M197.47,-120.87C197.47,-120.87 197.47,-151.85 197.47,-151.85"/>
<polygon fill="black" stroke="black" points="193.97,-151.85 197.47,-161.85 200.97,-151.85 193.97,-151.85"/>
</g>
<!-- PrismaModule -->
<g id="node12" class="node">
<title>PrismaModule</title>
<polygon fill="#8dd3c7" stroke="black" points="1070.43,-122 1067.43,-126 1046.43,-126 1043.43,-122 971.57,-122 971.57,-86 1070.43,-86 1070.43,-122"/>
<text text-anchor="middle" x="1021" y="-99.8" font-family="Times,serif" font-size="14.00">PrismaModule</text>
</g>
<!-- PrismaModule&#45;&gt;HealthModule -->
<g id="edge11" class="edge">
<title>PrismaModule&#45;&gt;HealthModule</title>
<path fill="none" stroke="black" d="M971.69,-98C832.82,-98 448.5,-98 448.5,-98 448.5,-98 448.5,-151.8 448.5,-151.8"/>
<polygon fill="black" stroke="black" points="445,-151.8 448.5,-161.8 452,-151.8 445,-151.8"/>
</g>
<!-- PrismaModule&#45;&gt;PostModule -->
<g id="edge13" class="edge">
<title>PrismaModule&#45;&gt;PostModule</title>
<path fill="none" stroke="black" d="M971.61,-110C945.18,-110 918,-110 918,-110 918,-110 918,-151.97 918,-151.97"/>
<polygon fill="black" stroke="black" points="914.5,-151.97 918,-161.97 921.5,-151.97 914.5,-151.97"/>
</g>
<!-- PrismaModule&#45;&gt;UserModule -->
<g id="edge19" class="edge">
<title>PrismaModule&#45;&gt;UserModule</title>
<path fill="none" stroke="black" d="M1021,-122.01C1021,-122.01 1021,-151.85 1021,-151.85"/>
<polygon fill="black" stroke="black" points="1017.5,-151.85 1021,-161.85 1024.5,-151.85 1017.5,-151.85"/>
</g>
<!-- PrismaService  -->
<g id="node16" class="node">
<title>PrismaService </title>
<polygon fill="#fb8072" stroke="black" points="1362.36,-198 1261.64,-198 1261.64,-162 1362.36,-162 1362.36,-198"/>
<text text-anchor="middle" x="1312" y="-175.8" font-family="Times,serif" font-size="14.00">PrismaService </text>
</g>
<!-- PrismaModule&#45;&gt;PrismaService  -->
<g id="edge16" class="edge">
<title>PrismaModule&#45;&gt;PrismaService </title>
<path fill="none" stroke="black" stroke-dasharray="5,2" d="M1070.36,-98C1153.39,-98 1312,-98 1312,-98 1312,-98 1312,-151.8 1312,-151.8"/>
<polygon fill="black" stroke="black" points="1308.5,-151.8 1312,-161.8 1315.5,-151.8 1308.5,-151.8"/>
</g>
<!-- PostService -->
<g id="node15" class="node">
<title>PostService</title>
<ellipse fill="#fdb462" stroke="black" cx="1301" cy="-256" rx="56.76" ry="18"/>
<text text-anchor="middle" x="1301" y="-251.8" font-family="Times,serif" font-size="14.00">PostService</text>
</g>
<!-- PostService&#45;&gt;PostModule -->
<g id="edge15" class="edge">
<title>PostService&#45;&gt;PostModule</title>
<path fill="none" stroke="black" d="M1253.1,-246.32C1253.1,-238.93 1253.1,-230 1253.1,-230 1253.1,-230 918,-230 918,-230 918,-230 918,-208.05 918,-208.05"/>
<polygon fill="black" stroke="black" points="921.5,-208.05 918,-198.05 914.5,-208.05 921.5,-208.05"/>
</g>
<!-- PrismaService -->
<g id="node17" class="node">
<title>PrismaService</title>
<ellipse fill="#fdb462" stroke="black" cx="1171" cy="-180" rx="66.63" ry="18"/>
<text text-anchor="middle" x="1171" y="-175.8" font-family="Times,serif" font-size="14.00">PrismaService</text>
</g>
<!-- PrismaService&#45;&gt;PrismaModule -->
<g id="edge17" class="edge">
<title>PrismaService&#45;&gt;PrismaModule</title>
<path fill="none" stroke="black" d="M1171,-161.97C1171,-141.23 1171,-110 1171,-110 1171,-110 1080.53,-110 1080.53,-110"/>
<polygon fill="black" stroke="black" points="1080.53,-106.5 1070.53,-110 1080.53,-113.5 1080.53,-106.5"/>
</g>
<!-- RecipesService -->
<g id="node18" class="node">
<title>RecipesService</title>
<ellipse fill="#fdb462" stroke="black" cx="344" cy="-104" rx="70.62" ry="18"/>
<text text-anchor="middle" x="344" y="-99.8" font-family="Times,serif" font-size="14.00">RecipesService</text>
</g>
<!-- RecipesService&#45;&gt;RecipesModule -->
<g id="edge18" class="edge">
<title>RecipesService&#45;&gt;RecipesModule</title>
<path fill="none" stroke="black" d="M320.69,-121.25C320.69,-121.25 320.69,-151.76 320.69,-151.76"/>
<polygon fill="black" stroke="black" points="317.19,-151.76 320.69,-161.76 324.19,-151.76 317.19,-151.76"/>
</g>
<!-- UserService -->
<g id="node20" class="node">
<title>UserService</title>
<ellipse fill="#fdb462" stroke="black" cx="1566" cy="-256" rx="58.44" ry="18"/>
<text text-anchor="middle" x="1566" y="-251.8" font-family="Times,serif" font-size="14.00">UserService</text>
</g>
<!-- UserService&#45;&gt;UserModule -->
<g id="edge21" class="edge">
<title>UserService&#45;&gt;UserModule</title>
<path fill="none" stroke="black" d="M1566,-237.94C1566,-226.56 1566,-214 1566,-214 1566,-214 1021,-214 1021,-214 1021,-214 1021,-208.19 1021,-208.19"/>
<polygon fill="black" stroke="black" points="1024.5,-208.19 1021,-198.19 1017.5,-208.19 1024.5,-208.19"/>
</g>
</g>
</svg>
